HIERARCHY
ROOT Root
{
  OFFSET 8.89354 12.5188 -31.3825
  CHANNELS 6 Xposition Yposition Zposition Zrotation Xrotation Yrotation
  JOINT Spine
  {
    OFFSET 5.3114 0 0
    CHANNELS 3 Zrotation Xrotation Yrotation
    JOINT Spine1
    {
      OFFSET 2.79004 0 0
      CHANNELS 3 Zrotation Xrotation Yrotation
      JOINT Neck
      {
        OFFSET 1.43377 0 0
        CHANNELS 3 Zrotation Xrotation Yrotation
        JOINT Head
        {
          OFFSET 1.86043 0 0
          CHANNELS 3 Zrotation Xrotation Yrotation
          End Site
          {
            OFFSET 0 0 0
          }
        }
      }
      JOINT LeftArm
      {
        OFFSET 0.0387506 0 2.55754
        CHANNELS 3 Zrotation Xrotation Yrotation
        JOINT LeftForeArm
        {
          OFFSET 4.24845 0 0
          CHANNELS 3 Zrotation Xrotation Yrotation
          JOINT LeftHand
          {
            OFFSET 4.01008 0 0
            CHANNELS 3 Zrotation Xrotation Yrotation
            End Site
            {
              OFFSET 0 0 0
            }
          }
        }
      }
      JOINT RightArm
      {
        OFFSET 0.0387506 0 -2.55754
        CHANNELS 3 Zrotation Xrotation Yrotation
        JOINT RightForeArm
        {
          OFFSET -4.24845 0 0
          CHANNELS 3 Zrotation Xrotation Yrotation
          JOINT RightHand
          {
            OFFSET -4.01009 0 0
            CHANNELS 3 Zrotation Xrotation Yrotation
            End Site
            {
              OFFSET 0 0 0
            }
          }
        }
      }
    }
  }
  JOINT LeftUpLeg
  {
    OFFSET -1.23318 0 2.05692
    CHANNELS 3 Zrotation Xrotation Yrotation
    JOINT LeftLeg
    {
      OFFSET 5.46397 0 0
      CHANNELS 3 Zrotation Xrotation Yrotation
      JOINT LeftFoot
      {
        OFFSET 4.68898 0 0
        CHANNELS 3 Zrotation Xrotation Yrotation
        End Site
        {
          OFFSET 0 0 0
        }
      }
    }
  }
  JOINT RightUpLeg
  {
    OFFSET -1.24454 0 -2.05007
    CHANNELS 3 Zrotation Xrotation Yrotation
    JOINT RightLeg
    {
      OFFSET -5.46397 0 0
      CHANNELS 3 Zrotation Xrotation Yrotation
      JOINT RightFoot
      {
        OFFSET -4.68901 0 0
        CHANNELS 3 Zrotation Xrotation Yrotation
        End Site
        {
          OFFSET 0 0 0
        }
      }
    }
  }
}
MOTION
Frames:	13
Frame Time:	0.0416667
6.09838 12.6791 -11.5042 -76.1773 -85.7793 -167.341 0.235961 15.6217 1.74437 -2.95399 4.63614 -4.92888 -3.3631 -5.97481 -11.3611 23.1347 -12.1493 8.55118 38.2853 -18.4525 -156.57 51.3323 8.87614 28.3484 0.148952 1.70032 174.447 -177.098 -41.1526 -153.664 31.5298 2.30933 18.1564 2.0178 21.9258 174.065 -12.7155 -15.9596 174.568 -22.6023 -0.916762 -1.03819 12.3241 -8.94509 179.6 177.286 7.56226 -178.65 -75.7045 -0.991792 -2.81849 4.12355 -13.0544 176.949 
6.06188 12.537 -11.7617 -61.4948 -86.2439 -152.642 3.38485 14.6966 1.00973 -3.52645 4.44669 -6.35182 -3.44446 -5.79827 -12.0173 19.76 -11.1886 10.612 34.7707 -19.2238 -155.929 49.4296 8.08092 27.4496 0.190537 2.17553 174.448 -174.894 -40.2483 -155.737 34.9983 3.17894 20.0539 1.93775 21.1293 174.093 -14.5607 -13.2796 173.66 -30.6558 -1.09915 -1.21027 16.8189 -6.8093 179.634 168.143 10.4646 -175.672 -93.9543 -0.548111 -3.59988 8.70066 -8.75314 177.468 
6.05957 12.3006 -12.0275 -51.8084 -85.295 -143.723 6.80912 14.1947 1.13348 -4.0889 4.39291 -7.70241 -1.85032 -5.287 -11.873 12.1377 -9.92505 11.1671 30.7551 -20.1315 -155.233 47.761 7.41122 26.6449 0.251562 2.87232 174.447 -172.872 -37.5695 -158.506 37.5435 3.8935 21.4221 2.22322 23.9125 173.984 -15.716 -12.1124 173.568 -39.4485 -1.29922 -1.44384 23.6146 -5.89597 -179.88 159.275 12.0316 -173.81 -108.072 0.0534628 -4.16069 13.3708 -6.94018 177.846 
6.06761 12.0097 -12.3292 -47.7652 -84.1226 -135.569 10.777 12.2764 -5.10424 -4.24022 4.20429 -7.78159 -2.4555 -3.87733 -10.5395 7.14605 -7.50724 10.0295 23.9156 -20.4999 -153.647 42.586 5.51812 24.0439 0.461095 5.2559 174.434 -171.244 -34.4481 -161.908 37.4747 3.8736 21.3851 2.27199 24.3811 173.965 -15.3618 -11.027 168.229 -43.1039 -1.43711 -1.56093 27.2308 -7.04388 -178.784 149.804 9.74625 -167.926 -117.357 0.470392 -4.39779 19.6768 -6.41664 178.352 
6.07128 11.7251 -12.6352 -45.1816 -83.9092 -130.871 12.3771 11.0971 -8.08922 -4.59221 4.1556 -8.02786 -2.17694 -2.34188 -10.5539 4.7645 -4.58359 10.1211 13.4975 -19.2711 -153.138 32.7833 2.64904 18.8274 1.15528 12.9777 174.324 -166.405 -31.2953 -164.348 35.951 3.43888 20.5687 2.08943 22.657 174.044 -16.0296 -10.2164 165.105 -48.2807 -1.56114 -1.72503 31.3573 -7.5468 -177.873 141 6.16139 -168.139 -117.602 0.151901 -4.30381 25.2587 -6.71377 179.212 
6.06501 11.5643 -12.9694 -34.4309 -83.9242 -121.063 12.2785 10.2797 -6.33618 -4.33701 3.80798 -8.20323 -0.963422 -1.36531 -9.5366 3.58532 -2.60379 7.99862 3.70089 -15.756 -156.141 27.9902 1.53041 16.1932 1.86226 20.377 174.12 -159.657 -29.6776 -164.835 34.4406 3.02954 19.7523 2.26439 24.312 173.969 -15.1579 -10.4055 165.378 -52.7555 -1.65867 -1.86165 35.3691 -7.33195 -177.327 136.021 4.63467 -172.728 -107.619 -0.781621 -3.92793 27.6716 -11.4747 -178.451 
6.06677 11.5202 -13.3338 -38.3511 -83.6657 -125.873 10.8782 9.0083 -4.54741 -4.35996 3.27697 -7.95501 -0.388011 0.273909 -7.67605 4.30557 0.725034 6.21304 2.38843 -18.123 -157.401 31.4109 2.2788 18.0919 1.50084 16.6664 174.235 -152.622 -31.0466 -163.508 33.8258 2.86952 19.4178 2.4122 25.6715 173.901 -12.9242 -10.2595 166.184 -53.6224 -1.73415 -1.88902 38.2607 -7.55999 -176.612 134.164 2.35357 -177.001 -91.748 -1.54027 -3.29796 29.2851 -15.8932 -175.944 
6.08923 11.5654 -13.7249 -51.1907 -82.7245 -139.01 9.33284 8.35867 -3.077 -4.32671 2.95237 -7.68478 -1.61583 2.25171 -6.19119 7.48399 4.65473 5.6192 1.41218 -22.9658 -156.963 33.1897 2.70699 19.071 1.25614 14.0669 174.3 -146.285 -31.6439 -161.858 34.9146 3.15536 20.0095 2.31914 24.813 173.943 -9.31075 -9.95196 166.658 -50.8512 -1.76151 -1.80626 39.186 -7.98389 -176.023 134.96 -0.802375 -179.737 -73.2326 -1.70363 -2.54843 26.4608 -17.4501 -175.902 
6.11272 11.6829 -14.1061 -58.5242 -81.1765 -146.609 8.24753 7.11543 -1.41844 -4.15101 2.44999 -7.07029 -2.03262 4.04459 -2.76673 10.3435 7.93094 1.682 -0.80981 -26.0957 -156.178 31.8063 2.37389 18.309 1.24704 13.9722 174.301 -141.259 -31.1566 -159.923 35.794 3.39416 20.485 2.20913 23.7818 173.99 -4.32437 -9.4855 167.352 -45.7624 -1.71801 -1.65153 38.26 -8.07963 -176.031 138.094 -3.60233 178.709 -56.562 -1.49263 -1.94072 22.9432 -16.1658 -177.263 
6.17849 11.8004 -14.4838 -62.7181 -79.6693 -150.99 7.27907 5.28432 -0.312394 -3.94129 1.782 -5.57274 -2.46462 5.67884 0.106446 13.5834 11.9762 -1.18784 -2.05446 -28.3571 -154.983 30.8386 2.14723 17.7755 1.30574 14.5889 174.283 -137.616 -30.051 -157.526 36.1474 3.4928 20.675 2.12509 22.979 174.025 0.85192 -8.50735 168.265 -40.1811 -1.63244 -1.48348 36.8737 -7.46986 -176.666 141.629 -7.09215 177.02 -46.1161 -1.2672 -1.63498 21.2208 -16.7646 -177.568 
6.22683 11.9031 -14.8369 -70.4711 -78.1923 -159.069 5.9066 3.4256 1.46504 -4.06887 1.14187 -4.36875 -1.99491 7.39148 2.99612 15.9002 15.6214 -3.87802 -3.07018 -28.848 -154.286 30.7933 2.13725 17.7502 1.19093 13.3536 174.311 -135.909 -27.3166 -155.747 35.9699 3.44313 20.5795 2.14157 23.1273 174.016 4.90168 -7.13477 169.234 -34.5793 -1.52861 -1.32092 35.4822 -5.34538 -178.33 143.757 -9.18824 175.436 -41.4214 -1.14447 -1.52831 20.2636 -17.8528 -177.53 
6.29859 11.9803 -15.1874 -78.7554 -76.5864 -167.051 4.25927 1.50118 2.27006 -3.59078 0.503866 -2.78599 -2.08524 8.89674 5.22906 18.025 18.5503 -5.95804 -3.8067 -29.0433 -152.972 30.9151 2.16507 17.8175 1.19129 13.3517 174.309 -135.616 -23.4864 -154.691 36.6279 3.6288 20.9327 2.04976 22.2582 174.051 8.13692 -5.74662 169.619 -29.095 -1.41604 -1.16628 32.4325 -4.83682 -179.019 145.119 -11.1507 174.305 -39.4562 -1.02483 -1.49036 17.243 -17.6845 -178.528 
6.37498 12.0727 -15.524 -83.2978 -75.177 -171.566 4.15509 -0.281814 3.52375 -3.63523 -0.0449669 -1.77191 -1.73711 10.1656 6.83092 19.3597 20.9274 -7.48855 -3.18622 -30.6626 -150.302 31.3364 2.26146 18.0507 0.925567 10.4552 174.367 -136.605 -18.7462 -155.303 37.2563 3.8093 21.2691 1.99904 21.7377 174.071 11.408 -5.52186 170.058 -23.6664 -1.28698 -1.0171 28.4946 -4.50996 -179.636 145.68 -13.3278 173.32 -37.7324 -0.894341 -1.4588 13.2464 -17.3553 -179.826 
